<?xml version="1.0" standalone="no"?>
<!DOCTYPE svg PUBLIC "-//W3C//DTD SVG 20010904//EN"
 "http://www.w3.org/TR/2001/REC-SVG-20010904/DTD/svg10.dtd">
<svg version="1.0" xmlns="http://www.w3.org/2000/svg"
 width="50.000000pt" height="50.000000pt" viewBox="0 0 50.000000 50.000000"
 preserveAspectRatio="xMidYMid meet">

<g transform="translate(0.000000,50.000000) scale(0.100000,-0.100000)"
fill="#000000" stroke="none">
<path d="M210 405 l-33 -85 -83 0 c-45 0 -85 -4 -89 -9 -3 -6 24 -34 60 -62
36 -29 65 -60 65 -68 0 -15 -19 -90 -34 -138 -11 -33 7 -29 80 17 35 22 68 40
74 40 6 0 39 -18 74 -40 73 -46 91 -50 80 -17 -15 48 -34 123 -34 138 0 8 29
39 65 68 36 28 63 56 60 62 -4 5 -44 9 -89 9 l-83 0 -33 85 c-18 47 -36 85
-40 85 -4 0 -22 -38 -40 -85z m56 8 c4 -16 6 -34 5 -40 -1 -7 3 -13 8 -13 5 0
13 -10 17 -22 10 -33 22 -38 97 -38 41 0 66 -4 62 -10 -3 -5 -12 -7 -20 -3 -9
3 -15 -1 -15 -11 0 -9 -7 -16 -15 -16 -8 0 -15 -7 -15 -15 0 -8 -4 -15 -10
-15 -18 0 -53 -42 -41 -49 6 -4 15 -27 20 -52 5 -24 12 -52 16 -62 6 -13 3
-16 -9 -11 -9 3 -16 10 -16 15 0 5 -7 9 -15 9 -8 0 -15 7 -15 15 0 10 -7 15
-17 13 -12 -2 -17 3 -15 15 2 9 -2 17 -8 17 -5 0 -10 -5 -10 -11 0 -5 -4 -7
-10 -4 -5 3 -19 -1 -31 -9 -12 -8 -28 -12 -35 -9 -8 3 -14 -1 -14 -11 0 -9 -7
-16 -15 -16 -8 0 -15 -4 -15 -9 0 -5 -7 -12 -16 -15 -12 -5 -15 -2 -9 11 4 10
11 38 16 62 5 25 14 48 20 52 12 7 -23 49 -41 49 -5 0 -10 7 -10 15 0 8 -7 15
-15 15 -8 0 -15 7 -15 16 0 10 -6 14 -15 11 -8 -4 -17 -2 -20 3 -4 6 21 10 62
10 75 0 87 5 97 38 4 12 12 22 17 22 5 0 9 6 8 13 -3 18 12 67 21 67 4 0 11
-12 16 -27z"/>
<path d="M240 400 c0 -5 5 -10 10 -10 6 0 10 5 10 10 0 6 -4 10 -10 10 -5 0
-10 -4 -10 -10z"/>
<path d="M240 340 c0 -5 5 -10 10 -10 6 0 10 5 10 10 0 6 -4 10 -10 10 -5 0
-10 -4 -10 -10z"/>
<path d="M210 310 c0 -5 5 -10 10 -10 6 0 10 5 10 10 0 6 -4 10 -10 10 -5 0
-10 -4 -10 -10z"/>
<path d="M270 310 c0 -5 5 -10 10 -10 6 0 10 5 10 10 0 6 -4 10 -10 10 -5 0
-10 -4 -10 -10z"/>
<path d="M120 280 c0 -5 5 -10 10 -10 6 0 10 5 10 10 0 6 -4 10 -10 10 -5 0
-10 -4 -10 -10z"/>
<path d="M180 280 c0 -5 5 -10 10 -10 6 0 10 5 10 10 0 6 -4 10 -10 10 -5 0
-10 -4 -10 -10z"/>
<path d="M240 280 c0 -5 5 -10 10 -10 6 0 10 5 10 10 0 6 -4 10 -10 10 -5 0
-10 -4 -10 -10z"/>
<path d="M300 280 c0 -5 5 -10 10 -10 6 0 10 5 10 10 0 6 -4 10 -10 10 -5 0
-10 -4 -10 -10z"/>
<path d="M360 280 c0 -5 5 -10 10 -10 6 0 10 5 10 10 0 6 -4 10 -10 10 -5 0
-10 -4 -10 -10z"/>
<path d="M150 250 c0 -5 5 -10 10 -10 6 0 10 5 10 10 0 6 -4 10 -10 10 -5 0
-10 -4 -10 -10z"/>
<path d="M210 250 c0 -5 5 -10 10 -10 6 0 10 5 10 10 0 6 -4 10 -10 10 -5 0
-10 -4 -10 -10z"/>
<path d="M270 250 c0 -5 5 -10 10 -10 6 0 10 5 10 10 0 6 -4 10 -10 10 -5 0
-10 -4 -10 -10z"/>
<path d="M330 250 c0 -5 5 -10 10 -10 6 0 10 5 10 10 0 6 -4 10 -10 10 -5 0
-10 -4 -10 -10z"/>
<path d="M180 220 c0 -5 5 -10 10 -10 6 0 10 5 10 10 0 6 -4 10 -10 10 -5 0
-10 -4 -10 -10z"/>
<path d="M240 220 c0 -5 5 -10 10 -10 6 0 10 5 10 10 0 6 -4 10 -10 10 -5 0
-10 -4 -10 -10z"/>
<path d="M300 220 c0 -5 5 -10 10 -10 6 0 10 5 10 10 0 6 -4 10 -10 10 -5 0
-10 -4 -10 -10z"/>
<path d="M210 190 c0 -5 5 -10 10 -10 6 0 10 5 10 10 0 6 -4 10 -10 10 -5 0
-10 -4 -10 -10z"/>
<path d="M270 190 c0 -5 5 -10 10 -10 6 0 10 5 10 10 0 6 -4 10 -10 10 -5 0
-10 -4 -10 -10z"/>
<path d="M180 160 c0 -5 5 -10 10 -10 6 0 10 5 10 10 0 6 -4 10 -10 10 -5 0
-10 -4 -10 -10z"/>
<path d="M240 160 c0 -5 5 -10 10 -10 6 0 10 5 10 10 0 6 -4 10 -10 10 -5 0
-10 -4 -10 -10z"/>
<path d="M300 160 c0 -5 5 -10 10 -10 6 0 10 5 10 10 0 6 -4 10 -10 10 -5 0
-10 -4 -10 -10z"/>
<path d="M150 130 c0 -5 5 -10 10 -10 6 0 10 5 10 10 0 6 -4 10 -10 10 -5 0
-10 -4 -10 -10z"/>
<path d="M210 130 c0 -5 5 -10 10 -10 6 0 10 5 10 10 0 6 -4 10 -10 10 -5 0
-10 -4 -10 -10z"/>
<path d="M330 130 c0 -5 5 -10 10 -10 6 0 10 5 10 10 0 6 -4 10 -10 10 -5 0
-10 -4 -10 -10z"/>
</g>
</svg>
